<?xml version="1.0" encoding="utf-8"?>
<!-- Generator: Adobe Illustrator 17.0.0, SVG Export Plug-In . SVG Version: 6.00 Build 0)  -->
<!DOCTYPE svg PUBLIC "-//W3C//DTD SVG 1.1//EN" "http://www.w3.org/Graphics/SVG/1.1/DTD/svg11.dtd">
<svg version="1.1" id="Layer_1" xmlns="http://www.w3.org/2000/svg" xmlns:xlink="http://www.w3.org/1999/xlink" x="0px" y="0px"
	 width="225px" height="99px" viewBox="0 0 225 99" enable-background="new 0 0 225 99" xml:space="preserve">
<g>
	<g>
		<path d="M50.662,39.341h-9.919v9.837h-4.748V25.504h16.325v3.659H40.744v6.52h9.919V39.341z"/>
		<path d="M65.264,44.073h-8.309l-1.61,5.106h-4.797l8.146-23.675h4.862l8.114,23.675h-4.797L65.264,44.073z M58.125,40.349h5.967
			l-2.927-9.301h-0.097L58.125,40.349z"/>
		<path d="M78.629,39.715v9.463h-4.748V25.504h8.927c2.699,0,4.81,0.615,6.333,1.846c1.523,1.23,2.285,2.946,2.285,5.146
			c0,1.225-0.32,2.276-0.959,3.154c-0.64,0.878-1.577,1.588-2.813,2.13c1.398,0.412,2.404,1.1,3.016,2.065s0.919,2.157,0.919,3.577
			v1.74c0,0.661,0.089,1.352,0.268,2.073c0.179,0.721,0.485,1.255,0.919,1.602v0.341h-4.894c-0.434-0.347-0.716-0.927-0.846-1.74
			c-0.13-0.813-0.195-1.583-0.195-2.309v-1.675c0-1.181-0.323-2.1-0.967-2.756c-0.645-0.656-1.553-0.984-2.724-0.984H78.629z
			 M78.629,36.057h4.097c1.333,0,2.328-0.282,2.984-0.845c0.656-0.564,0.984-1.398,0.984-2.504c0-1.084-0.328-1.946-0.984-2.585
			c-0.656-0.639-1.623-0.959-2.902-0.959h-4.179V36.057z"/>
		<path d="M102.093,25.504l6.032,17.447h0.098l6.081-17.447h6.211v23.675h-4.748v-7.057l0.455-10.455l-0.098-0.016l-6.342,17.528
			h-3.187l-6.309-17.463l-0.098,0.016l0.455,10.39v7.057h-4.748V25.504H102.093z"/>
		<path d="M139.507,38.772h-9.805v6.748h11.463v3.659h-16.211V25.504h16.179v3.659h-11.431v5.951h9.805V38.772z"/>
		<path d="M150.271,25.504l6.032,17.447h0.098l6.081-17.447h6.211v23.675h-4.748v-7.057l0.455-10.455l-0.098-0.016l-6.342,17.528
			h-3.187l-6.309-17.463l-0.098,0.016l0.455,10.39v7.057h-4.748V25.504H150.271z"/>
		<path d="M187.685,38.772h-9.805v6.748h11.463v3.659h-16.211V25.504h16.179v3.659h-11.431v5.951h9.805V38.772z"/>
	</g>
	<g>
		<path d="M40.505,63.363l-0.511,2.211h-0.467c-0.017-0.444-0.111-0.829-0.283-1.155c-0.172-0.326-0.383-0.508-0.632-0.545
			c-0.129-0.017-0.279-0.029-0.452-0.037c-0.172-0.008-0.371-0.012-0.595-0.012h-1.514l-0.831,3.593h1.018
			c0.242,0,0.462-0.026,0.662-0.078s0.394-0.161,0.581-0.327c0.096-0.087,0.203-0.228,0.322-0.423
			c0.119-0.195,0.214-0.403,0.284-0.623h0.467l-0.797,3.469h-0.467c0.004-0.05,0.009-0.108,0.016-0.174
			c0.006-0.066,0.009-0.139,0.009-0.218c0-0.116-0.008-0.249-0.025-0.399c-0.017-0.149-0.048-0.262-0.093-0.336
			c-0.112-0.17-0.258-0.282-0.436-0.336c-0.179-0.054-0.39-0.081-0.635-0.081h-1.015l-0.716,3.095
			c-0.008,0.033-0.015,0.067-0.019,0.103c-0.004,0.035-0.006,0.07-0.006,0.103c0,0.091,0.019,0.171,0.056,0.24
			c0.037,0.068,0.102,0.13,0.193,0.184c0.066,0.033,0.197,0.068,0.392,0.106c0.195,0.037,0.355,0.06,0.48,0.068l-0.1,0.411h-3.849
			l0.1-0.411c0.129-0.008,0.295-0.022,0.498-0.04c0.203-0.019,0.343-0.043,0.417-0.072c0.145-0.058,0.255-0.14,0.33-0.246
			c0.075-0.106,0.129-0.231,0.162-0.377l1.488-6.439c0.008-0.042,0.016-0.082,0.022-0.121c0.006-0.039,0.009-0.08,0.009-0.121
			c0-0.083-0.016-0.155-0.047-0.215s-0.097-0.115-0.196-0.165c-0.091-0.05-0.226-0.095-0.405-0.137
			c-0.179-0.042-0.328-0.069-0.448-0.081l0.1-0.411H40.505z"/>
		<path d="M43.806,71.327h-0.037c-0.191,0.154-0.374,0.295-0.548,0.423s-0.347,0.237-0.517,0.324c-0.199,0.1-0.38,0.171-0.542,0.215
			c-0.162,0.044-0.374,0.065-0.635,0.065c-0.399,0-0.708-0.115-0.928-0.346c-0.22-0.23-0.33-0.532-0.33-0.906
			c0-0.1,0.008-0.218,0.025-0.355c0.017-0.137,0.056-0.34,0.118-0.61l0.484-1.974c0.041-0.183,0.076-0.345,0.103-0.486
			s0.04-0.276,0.04-0.405c0-0.232-0.038-0.387-0.115-0.464c-0.077-0.077-0.233-0.115-0.469-0.115c-0.091,0-0.207,0.017-0.348,0.052
			c-0.141,0.035-0.251,0.063-0.329,0.085l0.093-0.401c0.324-0.146,0.609-0.257,0.856-0.333c0.247-0.075,0.445-0.113,0.595-0.113
			c0.332,0,0.576,0.078,0.732,0.234c0.156,0.156,0.234,0.377,0.234,0.663c0,0.075-0.009,0.176-0.025,0.305
			c-0.017,0.129-0.042,0.257-0.075,0.386l-0.55,2.304c-0.041,0.174-0.075,0.337-0.102,0.489c-0.027,0.152-0.04,0.267-0.04,0.346
			c0,0.278,0.06,0.498,0.18,0.66c0.12,0.162,0.311,0.243,0.573,0.243c0.265,0,0.538-0.07,0.818-0.209
			c0.28-0.139,0.561-0.35,0.843-0.632l1.084-4.689l1.086-0.075l0.075,0.093l-0.926,4.01c-0.042,0.17-0.079,0.341-0.112,0.514
			c-0.033,0.172-0.05,0.294-0.05,0.364c0,0.237,0.051,0.398,0.152,0.483c0.102,0.085,0.27,0.128,0.507,0.128
			c0.079,0,0.191-0.012,0.336-0.037c0.145-0.025,0.257-0.052,0.336-0.081l-0.093,0.399c-0.344,0.141-0.632,0.247-0.862,0.318
			c-0.23,0.071-0.443,0.106-0.638,0.106c-0.336,0-0.586-0.098-0.75-0.293C43.888,71.817,43.806,71.589,43.806,71.327z"/>
		<path d="M53.893,71.477L53.8,71.875c-0.375,0.149-0.667,0.258-0.875,0.327c-0.208,0.068-0.419,0.103-0.631,0.103
			c-0.333,0-0.583-0.086-0.75-0.259c-0.166-0.173-0.25-0.385-0.25-0.639c0-0.091,0.008-0.192,0.025-0.302
			c0.017-0.11,0.044-0.24,0.082-0.39l0.615-2.326c0.046-0.179,0.083-0.341,0.11-0.486s0.04-0.262,0.04-0.349
			c0-0.278-0.066-0.499-0.198-0.661c-0.132-0.162-0.328-0.243-0.587-0.243c-0.251,0-0.533,0.083-0.847,0.25
			c-0.313,0.166-0.607,0.407-0.883,0.724l-1.064,4.575h-1.163l0.934-4.04c0.021-0.1,0.051-0.244,0.09-0.433s0.059-0.342,0.059-0.458
			c0-0.233-0.04-0.388-0.119-0.467c-0.079-0.079-0.238-0.119-0.475-0.119c-0.092,0-0.209,0.016-0.351,0.047
			c-0.142,0.031-0.252,0.057-0.332,0.078l0.094-0.399c0.325-0.145,0.613-0.253,0.864-0.324c0.25-0.071,0.465-0.106,0.645-0.106
			c0.33,0,0.565,0.089,0.707,0.268c0.142,0.179,0.217,0.426,0.225,0.742h0.037c0.455-0.366,0.848-0.637,1.179-0.814
			c0.331-0.176,0.707-0.265,1.129-0.265c0.397,0,0.707,0.115,0.931,0.346c0.223,0.231,0.335,0.533,0.335,0.907
			c0,0.075-0.011,0.208-0.034,0.399c-0.023,0.191-0.059,0.38-0.109,0.567L52.71,70.13c-0.038,0.133-0.074,0.286-0.109,0.458
			c-0.035,0.173-0.053,0.306-0.053,0.402c0,0.237,0.052,0.398,0.156,0.483c0.104,0.085,0.274,0.128,0.511,0.128
			c0.079,0,0.192-0.013,0.34-0.04C53.701,71.534,53.814,71.506,53.893,71.477z"/>
		<path d="M66.08,63.363l-0.511,2.211h-0.467c-0.017-0.444-0.111-0.829-0.283-1.155c-0.173-0.326-0.383-0.508-0.632-0.545
			c-0.129-0.017-0.279-0.029-0.452-0.037c-0.172-0.008-0.371-0.012-0.595-0.012h-1.514l-0.831,3.593h1.018
			c0.242,0,0.462-0.026,0.662-0.078s0.394-0.161,0.581-0.327c0.096-0.087,0.203-0.228,0.322-0.423
			c0.119-0.195,0.214-0.403,0.284-0.623h0.467l-0.797,3.469h-0.467c0.004-0.05,0.009-0.108,0.016-0.174
			c0.006-0.066,0.009-0.139,0.009-0.218c0-0.116-0.008-0.249-0.025-0.399c-0.017-0.149-0.048-0.262-0.093-0.336
			c-0.112-0.17-0.258-0.282-0.436-0.336c-0.179-0.054-0.39-0.081-0.635-0.081h-1.015l-0.716,3.095
			c-0.008,0.033-0.015,0.067-0.019,0.103c-0.004,0.035-0.006,0.07-0.006,0.103c0,0.091,0.019,0.171,0.056,0.24
			c0.037,0.068,0.102,0.13,0.193,0.184c0.066,0.033,0.197,0.068,0.392,0.106c0.195,0.037,0.355,0.06,0.48,0.068l-0.1,0.411h-3.849
			l0.1-0.411c0.129-0.008,0.295-0.022,0.498-0.04c0.203-0.019,0.343-0.043,0.417-0.072c0.145-0.058,0.255-0.14,0.33-0.246
			c0.075-0.106,0.129-0.231,0.162-0.377l1.488-6.439c0.008-0.042,0.016-0.082,0.022-0.121c0.006-0.039,0.009-0.08,0.009-0.121
			c0-0.083-0.016-0.155-0.047-0.215s-0.097-0.115-0.196-0.165c-0.091-0.05-0.226-0.095-0.405-0.137
			c-0.179-0.042-0.328-0.069-0.448-0.081l0.1-0.411H66.08z"/>
		<path d="M69.307,71.376h-0.044c-0.091,0.075-0.2,0.169-0.327,0.284c-0.126,0.114-0.275,0.223-0.445,0.327
			c-0.162,0.104-0.338,0.194-0.528,0.271c-0.191,0.077-0.398,0.115-0.622,0.115c-0.601,0-1.073-0.216-1.415-0.648
			c-0.342-0.432-0.513-1.022-0.513-1.77c0-0.515,0.095-1.016,0.286-1.502c0.191-0.486,0.454-0.922,0.79-1.309
			c0.319-0.37,0.699-0.668,1.139-0.894c0.44-0.226,0.892-0.34,1.357-0.34c0.295,0,0.576,0.039,0.843,0.118
			c0.268,0.079,0.478,0.168,0.632,0.268l1.143-0.293l0.075,0.093l-0.949,4.021c-0.033,0.129-0.068,0.286-0.103,0.471
			c-0.035,0.185-0.053,0.321-0.053,0.408c0,0.237,0.05,0.397,0.149,0.48c0.1,0.083,0.268,0.125,0.505,0.125
			c0.079,0,0.191-0.012,0.337-0.037c0.146-0.025,0.258-0.052,0.337-0.081l-0.094,0.399c-0.374,0.149-0.653,0.257-0.836,0.324
			c-0.183,0.066-0.406,0.1-0.668,0.1c-0.3,0-0.537-0.087-0.711-0.262C69.42,71.869,69.324,71.646,69.307,71.376z M70.205,67.437
			c0-0.137-0.015-0.268-0.044-0.393s-0.089-0.241-0.181-0.349c-0.083-0.104-0.197-0.187-0.343-0.25
			c-0.146-0.062-0.328-0.093-0.548-0.093c-0.303,0-0.598,0.1-0.885,0.299c-0.287,0.199-0.544,0.467-0.772,0.804
			c-0.216,0.316-0.393,0.698-0.53,1.147c-0.137,0.449-0.205,0.904-0.205,1.365c0,0.254,0.015,0.478,0.044,0.673
			c0.029,0.196,0.085,0.374,0.168,0.536c0.079,0.158,0.193,0.281,0.342,0.368c0.149,0.087,0.338,0.131,0.566,0.131
			c0.232,0,0.475-0.065,0.73-0.196c0.255-0.131,0.542-0.361,0.861-0.689L70.205,67.437z"/>
		<path d="M78.224,66.925c0,0.116-0.017,0.244-0.05,0.383s-0.081,0.254-0.143,0.346c-0.075,0.112-0.157,0.198-0.246,0.258
			s-0.217,0.09-0.383,0.09c-0.224,0-0.392-0.056-0.504-0.168c-0.112-0.112-0.168-0.237-0.168-0.374c0-0.129,0.031-0.273,0.093-0.433
			c0.062-0.16,0.127-0.319,0.193-0.476c-0.05,0-0.132,0.013-0.246,0.04c-0.114,0.027-0.252,0.08-0.413,0.159
			c-0.161,0.079-0.345,0.198-0.55,0.356s-0.423,0.368-0.655,0.63l-1.004,4.463h-1.162l0.908-4.04c0.021-0.1,0.051-0.249,0.09-0.449
			c0.039-0.199,0.059-0.347,0.059-0.443c0-0.233-0.04-0.388-0.118-0.467c-0.079-0.079-0.236-0.119-0.473-0.119
			c-0.091,0-0.208,0.016-0.349,0.047c-0.141,0.031-0.251,0.057-0.33,0.078l0.093-0.399c0.324-0.145,0.61-0.253,0.859-0.324
			c0.249-0.071,0.463-0.106,0.641-0.106c0.332,0,0.569,0.09,0.71,0.271c0.141,0.181,0.212,0.452,0.212,0.814h0.037
			c0.494-0.428,0.869-0.727,1.124-0.898c0.255-0.17,0.522-0.256,0.8-0.256c0.133,0,0.262,0.017,0.386,0.05
			c0.125,0.033,0.23,0.089,0.318,0.168c0.091,0.087,0.159,0.188,0.202,0.302C78.202,66.544,78.224,66.709,78.224,66.925z"/>
		<path d="M89.016,71.496l-0.094,0.399c-0.383,0.154-0.69,0.261-0.919,0.321c-0.229,0.06-0.425,0.09-0.587,0.09
			c-0.333,0-0.583-0.086-0.75-0.259c-0.166-0.173-0.25-0.385-0.25-0.639c0-0.091,0.008-0.192,0.025-0.302s0.044-0.24,0.082-0.39
			l0.615-2.326c0.046-0.179,0.082-0.341,0.109-0.486s0.04-0.262,0.04-0.349c0-0.278-0.06-0.499-0.18-0.661
			c-0.12-0.162-0.31-0.243-0.57-0.243c-0.277,0-0.548,0.066-0.814,0.197c-0.266,0.131-0.567,0.375-0.901,0.733l-1.093,4.619h-1.157
			l0.982-4.164c0.021-0.092,0.04-0.188,0.059-0.29s0.028-0.178,0.028-0.228c0-0.27-0.067-0.482-0.201-0.636
			c-0.134-0.154-0.331-0.231-0.591-0.231c-0.235,0-0.495,0.059-0.78,0.178s-0.615,0.384-0.99,0.795l-1.064,4.575h-1.163l0.934-4.04
			c0.033-0.145,0.065-0.301,0.097-0.467c0.031-0.166,0.047-0.308,0.047-0.424c0-0.241-0.04-0.4-0.119-0.477
			c-0.079-0.077-0.233-0.115-0.463-0.115c-0.092,0-0.21,0.017-0.354,0.052c-0.144,0.035-0.256,0.063-0.335,0.085l0.094-0.402
			c0.325-0.146,0.613-0.255,0.864-0.326c0.25-0.071,0.465-0.107,0.645-0.107c0.334,0,0.571,0.09,0.711,0.271
			c0.14,0.181,0.214,0.427,0.222,0.739h0.037c0.489-0.387,0.891-0.663,1.206-0.829c0.315-0.166,0.69-0.249,1.126-0.249
			c0.369,0,0.668,0.107,0.899,0.321c0.23,0.214,0.36,0.483,0.389,0.807h0.025c0.442-0.37,0.836-0.65,1.182-0.842
			c0.345-0.191,0.747-0.287,1.206-0.287c0.397,0,0.702,0.115,0.915,0.346c0.213,0.231,0.319,0.533,0.319,0.907
			c0,0.075-0.011,0.208-0.034,0.399c-0.023,0.191-0.059,0.38-0.109,0.567l-0.525,2.001c-0.038,0.133-0.073,0.286-0.106,0.458
			c-0.033,0.173-0.05,0.306-0.05,0.402c0,0.237,0.05,0.398,0.15,0.483c0.1,0.085,0.268,0.128,0.505,0.128
			c0.079,0,0.193-0.01,0.343-0.031S88.937,71.525,89.016,71.496z"/>
		<path d="M95.53,72.38c-0.511,0-0.958-0.063-1.342-0.19c-0.384-0.127-0.694-0.273-0.931-0.439l-0.355,0.455h-0.498l0.61-3.027
			h0.504c0.021,0.361,0.07,0.7,0.146,1.015c0.077,0.316,0.202,0.6,0.376,0.853c0.174,0.262,0.4,0.464,0.678,0.607
			c0.278,0.143,0.622,0.215,1.032,0.215c0.618,0,1.113-0.171,1.486-0.514c0.373-0.343,0.56-0.811,0.56-1.404
			c0-0.32-0.079-0.604-0.236-0.853c-0.158-0.249-0.394-0.442-0.709-0.579c-0.299-0.129-0.594-0.244-0.886-0.346
			c-0.292-0.102-0.579-0.221-0.861-0.358c-0.373-0.179-0.674-0.435-0.902-0.769s-0.342-0.711-0.342-1.13
			c0-0.399,0.088-0.766,0.265-1.102s0.41-0.627,0.701-0.872c0.282-0.237,0.624-0.426,1.024-0.567s0.798-0.212,1.193-0.212
			c0.369,0,0.719,0.044,1.049,0.131c0.33,0.087,0.661,0.251,0.993,0.492l0.343-0.423h0.498l-0.629,2.933h-0.504
			c-0.012-0.32-0.045-0.65-0.097-0.99c-0.052-0.34-0.14-0.623-0.264-0.847c-0.137-0.245-0.328-0.437-0.572-0.576
			c-0.245-0.139-0.57-0.209-0.976-0.209c-0.489,0-0.899,0.169-1.231,0.508c-0.332,0.338-0.497,0.74-0.497,1.205
			c0,0.307,0.061,0.568,0.184,0.782c0.122,0.214,0.312,0.387,0.569,0.52c0.274,0.141,0.561,0.263,0.861,0.364
			c0.301,0.102,0.569,0.209,0.805,0.321c0.477,0.224,0.849,0.494,1.116,0.81s0.401,0.702,0.401,1.158
			c0,0.44-0.095,0.851-0.286,1.233c-0.191,0.382-0.446,0.702-0.766,0.959c-0.336,0.274-0.713,0.484-1.13,0.629
			C96.492,72.307,96.032,72.38,95.53,72.38z"/>
		<path d="M101.502,72.33c-0.394,0-0.683-0.08-0.866-0.24c-0.183-0.16-0.274-0.389-0.274-0.688c0-0.095,0.006-0.186,0.019-0.271
			c0.012-0.085,0.029-0.182,0.05-0.29l0.971-4.16h-1.114l0.131-0.567h1.137l0.434-1.825h1.12l-0.421,1.825h1.734l-0.13,0.567h-1.719
			l-0.804,3.431c-0.037,0.158-0.069,0.31-0.093,0.458c-0.025,0.147-0.037,0.273-0.037,0.377c0,0.228,0.057,0.395,0.171,0.501
			c0.114,0.106,0.321,0.159,0.62,0.159c0.108,0,0.259-0.013,0.455-0.04c0.195-0.027,0.347-0.061,0.455-0.103l-0.106,0.455
			c-0.291,0.112-0.565,0.209-0.822,0.29C102.154,72.29,101.851,72.33,101.502,72.33z"/>
		<path d="M108.446,71.327h-0.037c-0.191,0.154-0.374,0.295-0.548,0.423s-0.347,0.237-0.517,0.324
			c-0.199,0.1-0.38,0.171-0.542,0.215s-0.374,0.065-0.635,0.065c-0.399,0-0.708-0.115-0.928-0.346c-0.22-0.23-0.33-0.532-0.33-0.906
			c0-0.1,0.008-0.218,0.025-0.355c0.017-0.137,0.056-0.34,0.118-0.61l0.484-1.974c0.041-0.183,0.076-0.345,0.103-0.486
			s0.04-0.276,0.04-0.405c0-0.232-0.038-0.387-0.115-0.464c-0.077-0.077-0.233-0.115-0.469-0.115c-0.091,0-0.207,0.017-0.348,0.052
			c-0.141,0.035-0.251,0.063-0.329,0.085l0.093-0.401c0.324-0.146,0.609-0.257,0.856-0.333c0.247-0.075,0.445-0.113,0.595-0.113
			c0.332,0,0.576,0.078,0.732,0.234s0.234,0.377,0.234,0.663c0,0.075-0.009,0.176-0.025,0.305c-0.017,0.129-0.042,0.257-0.075,0.386
			l-0.55,2.304c-0.041,0.174-0.075,0.337-0.102,0.489c-0.027,0.152-0.04,0.267-0.04,0.346c0,0.278,0.06,0.498,0.18,0.66
			c0.12,0.162,0.311,0.243,0.573,0.243c0.265,0,0.538-0.07,0.818-0.209c0.28-0.139,0.561-0.35,0.843-0.632l1.084-4.689l1.086-0.075
			l0.075,0.093l-0.926,4.01c-0.042,0.17-0.079,0.341-0.112,0.514c-0.033,0.172-0.05,0.294-0.05,0.364
			c0,0.237,0.051,0.398,0.152,0.483c0.102,0.085,0.27,0.128,0.507,0.128c0.079,0,0.191-0.012,0.336-0.037
			c0.145-0.025,0.257-0.052,0.336-0.081l-0.093,0.399c-0.344,0.141-0.632,0.247-0.862,0.318c-0.23,0.071-0.443,0.106-0.638,0.106
			c-0.336,0-0.586-0.098-0.75-0.293C108.528,71.817,108.446,71.589,108.446,71.327z"/>
		<path d="M114.457,66.682l-1.097,5.144c-0.195,0.922-0.606,1.675-1.232,2.261c-0.626,0.585-1.271,0.878-1.934,0.878
			c-0.365,0-0.633-0.07-0.805-0.209s-0.258-0.314-0.258-0.526c0-0.179,0.054-0.336,0.162-0.473c0.108-0.137,0.264-0.205,0.467-0.205
			c0.129,0,0.242,0.029,0.339,0.087c0.098,0.058,0.184,0.131,0.258,0.218c0.058,0.071,0.124,0.166,0.196,0.286
			c0.073,0.12,0.136,0.224,0.19,0.311c0.32-0.025,0.593-0.241,0.819-0.648c0.226-0.407,0.422-0.988,0.588-1.744l1.148-5.38h-1.216
			l0.131-0.567h1.2l0.09-0.423c0.1-0.481,0.257-0.914,0.473-1.299s0.461-0.713,0.735-0.982c0.27-0.265,0.576-0.473,0.919-0.625
			c0.343-0.151,0.672-0.227,0.987-0.227c0.365,0,0.634,0.07,0.806,0.209c0.172,0.139,0.258,0.314,0.258,0.526
			c0,0.179-0.051,0.336-0.153,0.473c-0.102,0.137-0.261,0.206-0.478,0.206c-0.129,0-0.242-0.028-0.338-0.084
			s-0.181-0.13-0.256-0.221c-0.083-0.104-0.15-0.201-0.2-0.293c-0.05-0.091-0.113-0.193-0.188-0.305
			c-0.287,0.012-0.542,0.201-0.762,0.566c-0.221,0.365-0.419,0.971-0.595,1.821l-0.14,0.659h1.571l-0.131,0.567H114.457z"/>
		<path d="M118.648,66.682l-1.097,5.144c-0.195,0.922-0.606,1.675-1.232,2.261c-0.626,0.585-1.271,0.878-1.934,0.878
			c-0.365,0-0.633-0.07-0.805-0.209s-0.258-0.314-0.258-0.526c0-0.179,0.054-0.336,0.162-0.473c0.108-0.137,0.264-0.205,0.467-0.205
			c0.129,0,0.242,0.029,0.339,0.087c0.098,0.058,0.184,0.131,0.258,0.218c0.058,0.071,0.124,0.166,0.196,0.286
			c0.073,0.12,0.136,0.224,0.19,0.311c0.32-0.025,0.593-0.241,0.819-0.648c0.226-0.407,0.422-0.988,0.588-1.744l1.148-5.38h-1.216
			l0.131-0.567h1.2l0.09-0.423c0.1-0.481,0.257-0.914,0.473-1.299c0.216-0.385,0.461-0.713,0.735-0.982
			c0.27-0.265,0.576-0.473,0.919-0.625c0.343-0.151,0.672-0.227,0.987-0.227c0.365,0,0.634,0.07,0.806,0.209
			c0.172,0.139,0.258,0.314,0.258,0.526c0,0.179-0.051,0.336-0.153,0.473c-0.102,0.137-0.261,0.206-0.478,0.206
			c-0.129,0-0.242-0.028-0.338-0.084s-0.181-0.13-0.256-0.221c-0.083-0.104-0.15-0.201-0.2-0.293s-0.113-0.193-0.188-0.305
			c-0.287,0.012-0.542,0.201-0.762,0.566c-0.221,0.365-0.419,0.971-0.595,1.821l-0.14,0.659h1.571l-0.131,0.567H118.648z"/>
		<path d="M125.915,66.682l-1.097,5.144c-0.195,0.922-0.606,1.675-1.232,2.261c-0.626,0.585-1.271,0.878-1.934,0.878
			c-0.365,0-0.633-0.07-0.805-0.209c-0.172-0.139-0.258-0.314-0.258-0.526c0-0.179,0.054-0.336,0.162-0.473
			c0.108-0.137,0.264-0.205,0.467-0.205c0.129,0,0.242,0.029,0.339,0.087c0.098,0.058,0.184,0.131,0.258,0.218
			c0.058,0.071,0.124,0.166,0.196,0.286c0.073,0.12,0.136,0.224,0.19,0.311c0.32-0.025,0.593-0.241,0.819-0.648
			c0.226-0.407,0.422-0.988,0.588-1.744l1.148-5.38h-1.216l0.131-0.567h1.2l0.09-0.423c0.1-0.481,0.257-0.914,0.473-1.299
			s0.461-0.713,0.735-0.982c0.27-0.265,0.576-0.473,0.919-0.625c0.343-0.151,0.672-0.227,0.987-0.227
			c0.365,0,0.634,0.07,0.806,0.209c0.172,0.139,0.258,0.314,0.258,0.526c0,0.179-0.051,0.336-0.153,0.473
			c-0.102,0.137-0.261,0.206-0.478,0.206c-0.129,0-0.242-0.028-0.338-0.084s-0.181-0.13-0.256-0.221
			c-0.083-0.104-0.15-0.201-0.2-0.293s-0.113-0.193-0.188-0.305c-0.287,0.012-0.542,0.201-0.762,0.566
			c-0.221,0.365-0.419,0.971-0.595,1.821l-0.14,0.659h1.571l-0.131,0.567H125.915z"/>
		<path d="M133.461,68.359c0,0.491-0.083,0.981-0.249,1.471c-0.166,0.491-0.407,0.921-0.722,1.29
			c-0.32,0.382-0.705,0.689-1.155,0.92c-0.45,0.23-0.973,0.346-1.566,0.346c-0.689,0-1.249-0.222-1.678-0.667
			c-0.43-0.445-0.645-1.043-0.645-1.795c0-0.553,0.091-1.068,0.274-1.546c0.183-0.478,0.428-0.897,0.735-1.259
			c0.311-0.362,0.696-0.653,1.155-0.876c0.459-0.222,0.956-0.334,1.491-0.334c0.739,0,1.317,0.225,1.734,0.676
			C133.252,67.037,133.461,67.628,133.461,68.359z M132.19,68.122c0-0.59-0.105-1.033-0.314-1.328
			c-0.21-0.295-0.512-0.443-0.906-0.443c-0.345,0-0.669,0.106-0.975,0.318c-0.305,0.212-0.568,0.557-0.788,1.035
			c-0.17,0.362-0.295,0.764-0.374,1.206c-0.079,0.443-0.118,0.851-0.118,1.225c0,0.595,0.103,1.044,0.308,1.35
			s0.516,0.458,0.931,0.458c0.369,0,0.697-0.116,0.984-0.349c0.286-0.233,0.519-0.528,0.697-0.885
			c0.179-0.349,0.316-0.749,0.411-1.2C132.143,69.059,132.19,68.596,132.19,68.122z"/>
		<path d="M139.819,66.925c0,0.116-0.017,0.244-0.05,0.383s-0.081,0.254-0.143,0.346c-0.075,0.112-0.157,0.198-0.246,0.258
			c-0.089,0.06-0.217,0.09-0.383,0.09c-0.224,0-0.392-0.056-0.504-0.168s-0.168-0.237-0.168-0.374c0-0.129,0.031-0.273,0.093-0.433
			c0.062-0.16,0.127-0.319,0.193-0.476c-0.05,0-0.132,0.013-0.246,0.04c-0.114,0.027-0.252,0.08-0.413,0.159
			c-0.161,0.079-0.345,0.198-0.55,0.356c-0.205,0.158-0.423,0.368-0.655,0.63l-1.004,4.463h-1.162l0.908-4.04
			c0.021-0.1,0.051-0.249,0.09-0.449c0.039-0.199,0.059-0.347,0.059-0.443c0-0.233-0.04-0.388-0.118-0.467
			c-0.079-0.079-0.236-0.119-0.473-0.119c-0.091,0-0.208,0.016-0.349,0.047c-0.141,0.031-0.251,0.057-0.33,0.078l0.093-0.399
			c0.324-0.145,0.61-0.253,0.859-0.324c0.249-0.071,0.463-0.106,0.641-0.106c0.332,0,0.569,0.09,0.71,0.271
			c0.141,0.181,0.212,0.452,0.212,0.814h0.037c0.494-0.428,0.869-0.727,1.124-0.898c0.255-0.17,0.522-0.256,0.8-0.256
			c0.133,0,0.262,0.017,0.386,0.05c0.125,0.033,0.23,0.089,0.318,0.168c0.091,0.087,0.159,0.188,0.202,0.302
			C139.797,66.544,139.819,66.709,139.819,66.925z"/>
		<path d="M151.582,63.363l-0.511,2.211h-0.467c-0.017-0.444-0.111-0.829-0.283-1.155c-0.173-0.326-0.383-0.508-0.632-0.545
			c-0.129-0.017-0.279-0.029-0.452-0.037c-0.172-0.008-0.371-0.012-0.595-0.012h-1.514l-0.831,3.593h1.018
			c0.242,0,0.462-0.026,0.662-0.078c0.2-0.052,0.394-0.161,0.581-0.327c0.096-0.087,0.203-0.228,0.322-0.423
			c0.119-0.195,0.214-0.403,0.284-0.623h0.467l-0.797,3.469h-0.467c0.004-0.05,0.009-0.108,0.016-0.174
			c0.006-0.066,0.009-0.139,0.009-0.218c0-0.116-0.008-0.249-0.025-0.399c-0.017-0.149-0.048-0.262-0.093-0.336
			c-0.112-0.17-0.258-0.282-0.436-0.336c-0.179-0.054-0.39-0.081-0.635-0.081h-1.015l-0.716,3.095
			c-0.008,0.033-0.015,0.067-0.019,0.103c-0.004,0.035-0.006,0.07-0.006,0.103c0,0.091,0.019,0.171,0.056,0.24
			c0.037,0.068,0.102,0.13,0.193,0.184c0.066,0.033,0.197,0.068,0.392,0.106c0.195,0.037,0.355,0.06,0.48,0.068l-0.1,0.411h-3.849
			l0.1-0.411c0.129-0.008,0.295-0.022,0.498-0.04c0.203-0.019,0.343-0.043,0.417-0.072c0.145-0.058,0.255-0.14,0.33-0.246
			c0.075-0.106,0.129-0.231,0.162-0.377l1.488-6.439c0.008-0.042,0.016-0.082,0.022-0.121c0.006-0.039,0.009-0.08,0.009-0.121
			c0-0.083-0.016-0.155-0.047-0.215s-0.097-0.115-0.196-0.165c-0.091-0.05-0.226-0.095-0.405-0.137
			c-0.179-0.042-0.328-0.069-0.448-0.081l0.1-0.411H151.582z"/>
		<path d="M154.809,71.376h-0.044c-0.091,0.075-0.2,0.169-0.327,0.284c-0.126,0.114-0.275,0.223-0.445,0.327
			c-0.162,0.104-0.338,0.194-0.528,0.271c-0.191,0.077-0.398,0.115-0.622,0.115c-0.601,0-1.073-0.216-1.415-0.648
			c-0.342-0.432-0.513-1.022-0.513-1.77c0-0.515,0.095-1.016,0.286-1.502c0.191-0.486,0.454-0.922,0.79-1.309
			c0.319-0.37,0.699-0.668,1.139-0.894c0.44-0.226,0.892-0.34,1.357-0.34c0.295,0,0.576,0.039,0.843,0.118
			c0.268,0.079,0.478,0.168,0.632,0.268l1.143-0.293l0.075,0.093l-0.949,4.021c-0.033,0.129-0.068,0.286-0.103,0.471
			c-0.035,0.185-0.053,0.321-0.053,0.408c0,0.237,0.05,0.397,0.149,0.48c0.1,0.083,0.268,0.125,0.505,0.125
			c0.079,0,0.191-0.012,0.337-0.037c0.146-0.025,0.258-0.052,0.337-0.081l-0.094,0.399c-0.374,0.149-0.653,0.257-0.836,0.324
			c-0.183,0.066-0.406,0.1-0.668,0.1c-0.3,0-0.537-0.087-0.711-0.262C154.922,71.869,154.826,71.646,154.809,71.376z
			 M155.707,67.437c0-0.137-0.015-0.268-0.044-0.393c-0.029-0.125-0.089-0.241-0.181-0.349c-0.083-0.104-0.197-0.187-0.343-0.25
			c-0.146-0.062-0.328-0.093-0.548-0.093c-0.303,0-0.598,0.1-0.885,0.299c-0.287,0.199-0.544,0.467-0.772,0.804
			c-0.216,0.316-0.393,0.698-0.53,1.147c-0.137,0.449-0.205,0.904-0.205,1.365c0,0.254,0.015,0.478,0.044,0.673
			c0.029,0.196,0.085,0.374,0.168,0.536c0.079,0.158,0.193,0.281,0.342,0.368c0.149,0.087,0.338,0.131,0.566,0.131
			c0.232,0,0.475-0.065,0.73-0.196c0.255-0.131,0.542-0.361,0.861-0.689L155.707,67.437z"/>
		<path d="M163.726,66.925c0,0.116-0.017,0.244-0.05,0.383c-0.033,0.139-0.081,0.254-0.143,0.346
			c-0.075,0.112-0.157,0.198-0.246,0.258c-0.089,0.06-0.217,0.09-0.383,0.09c-0.224,0-0.392-0.056-0.504-0.168
			s-0.168-0.237-0.168-0.374c0-0.129,0.031-0.273,0.093-0.433c0.062-0.16,0.127-0.319,0.193-0.476c-0.05,0-0.132,0.013-0.246,0.04
			c-0.114,0.027-0.252,0.08-0.413,0.159c-0.161,0.079-0.345,0.198-0.55,0.356s-0.423,0.368-0.655,0.63l-1.004,4.463h-1.162
			l0.908-4.04c0.021-0.1,0.051-0.249,0.09-0.449c0.039-0.199,0.059-0.347,0.059-0.443c0-0.233-0.04-0.388-0.118-0.467
			c-0.079-0.079-0.236-0.119-0.473-0.119c-0.091,0-0.208,0.016-0.349,0.047c-0.141,0.031-0.251,0.057-0.33,0.078l0.093-0.399
			c0.324-0.145,0.61-0.253,0.859-0.324c0.249-0.071,0.463-0.106,0.641-0.106c0.332,0,0.569,0.09,0.71,0.271
			c0.141,0.181,0.212,0.452,0.212,0.814h0.037c0.494-0.428,0.869-0.727,1.124-0.898c0.255-0.17,0.522-0.256,0.8-0.256
			c0.133,0,0.262,0.017,0.386,0.05s0.23,0.089,0.318,0.168c0.091,0.087,0.159,0.188,0.202,0.302S163.726,66.709,163.726,66.925z"/>
		<path d="M174.518,71.496l-0.094,0.399c-0.383,0.154-0.69,0.261-0.919,0.321c-0.229,0.06-0.425,0.09-0.587,0.09
			c-0.333,0-0.583-0.086-0.75-0.259c-0.166-0.173-0.25-0.385-0.25-0.639c0-0.091,0.008-0.192,0.025-0.302
			c0.017-0.11,0.044-0.24,0.082-0.39l0.615-2.326c0.046-0.179,0.082-0.341,0.109-0.486c0.027-0.146,0.04-0.262,0.04-0.349
			c0-0.278-0.06-0.499-0.18-0.661c-0.12-0.162-0.31-0.243-0.57-0.243c-0.277,0-0.548,0.066-0.814,0.197
			c-0.266,0.131-0.567,0.375-0.901,0.733l-1.093,4.619h-1.157l0.982-4.164c0.021-0.092,0.04-0.188,0.059-0.29
			c0.019-0.102,0.028-0.178,0.028-0.228c0-0.27-0.067-0.482-0.201-0.636c-0.134-0.154-0.331-0.231-0.591-0.231
			c-0.235,0-0.495,0.059-0.78,0.178s-0.615,0.384-0.99,0.795l-1.064,4.575h-1.163l0.934-4.04c0.033-0.145,0.065-0.301,0.097-0.467
			c0.031-0.166,0.047-0.308,0.047-0.424c0-0.241-0.04-0.4-0.119-0.477c-0.079-0.077-0.233-0.115-0.463-0.115
			c-0.092,0-0.21,0.017-0.354,0.052c-0.144,0.035-0.256,0.063-0.335,0.085l0.094-0.402c0.325-0.146,0.613-0.255,0.864-0.326
			c0.25-0.071,0.465-0.107,0.645-0.107c0.334,0,0.571,0.09,0.711,0.271c0.14,0.181,0.214,0.427,0.222,0.739h0.037
			c0.489-0.387,0.891-0.663,1.206-0.829c0.315-0.166,0.69-0.249,1.126-0.249c0.369,0,0.668,0.107,0.899,0.321
			c0.23,0.214,0.36,0.483,0.389,0.807h0.025c0.442-0.37,0.836-0.65,1.182-0.842c0.345-0.191,0.747-0.287,1.206-0.287
			c0.397,0,0.702,0.115,0.915,0.346c0.213,0.231,0.319,0.533,0.319,0.907c0,0.075-0.011,0.208-0.034,0.399
			c-0.023,0.191-0.059,0.38-0.109,0.567l-0.525,2.001c-0.038,0.133-0.073,0.286-0.106,0.458c-0.033,0.173-0.05,0.306-0.05,0.402
			c0,0.237,0.05,0.398,0.15,0.483c0.1,0.085,0.268,0.128,0.505,0.128c0.079,0,0.193-0.01,0.343-0.031
			C174.325,71.55,174.439,71.525,174.518,71.496z"/>
		<path d="M180.652,67.207c0,0.441-0.138,0.819-0.414,1.135c-0.276,0.316-0.678,0.568-1.205,0.755
			c-0.386,0.142-0.776,0.256-1.171,0.343c-0.394,0.087-0.83,0.16-1.308,0.218c0,0.656,0.121,1.157,0.364,1.504
			c0.243,0.347,0.599,0.52,1.068,0.52c0.415,0,0.782-0.104,1.099-0.311c0.318-0.208,0.63-0.517,0.937-0.928l0.355,0.262
			c-0.332,0.506-0.747,0.911-1.245,1.214c-0.498,0.303-1.015,0.455-1.551,0.455c-0.735,0-1.296-0.206-1.685-0.617
			c-0.388-0.411-0.582-0.995-0.582-1.752c0-0.524,0.082-1.023,0.246-1.499c0.164-0.476,0.404-0.911,0.719-1.306
			c0.307-0.387,0.684-0.698,1.13-0.935c0.446-0.237,0.939-0.355,1.479-0.355c0.598,0,1.041,0.122,1.33,0.365
			C180.508,66.518,180.652,66.829,180.652,67.207z M179.506,67.054c0-0.161-0.023-0.289-0.068-0.382
			c-0.046-0.093-0.104-0.163-0.174-0.208c-0.075-0.05-0.154-0.081-0.237-0.093c-0.083-0.012-0.168-0.019-0.255-0.019
			c-0.498,0-0.958,0.273-1.379,0.82c-0.421,0.547-0.688,1.228-0.8,2.044c0.291-0.042,0.619-0.1,0.984-0.177
			c0.365-0.077,0.668-0.177,0.909-0.301c0.345-0.178,0.601-0.407,0.769-0.687S179.506,67.439,179.506,67.054z"/>
		<path d="M186.842,66.925c0,0.116-0.017,0.244-0.05,0.383c-0.033,0.139-0.081,0.254-0.143,0.346
			c-0.075,0.112-0.157,0.198-0.246,0.258s-0.217,0.09-0.383,0.09c-0.224,0-0.392-0.056-0.504-0.168s-0.168-0.237-0.168-0.374
			c0-0.129,0.031-0.273,0.093-0.433s0.127-0.319,0.193-0.476c-0.05,0-0.132,0.013-0.246,0.04c-0.114,0.027-0.252,0.08-0.413,0.159
			c-0.161,0.079-0.345,0.198-0.55,0.356s-0.423,0.368-0.655,0.63l-1.004,4.463h-1.162l0.908-4.04c0.021-0.1,0.051-0.249,0.09-0.449
			c0.039-0.199,0.059-0.347,0.059-0.443c0-0.233-0.04-0.388-0.118-0.467c-0.079-0.079-0.236-0.119-0.473-0.119
			c-0.091,0-0.208,0.016-0.349,0.047c-0.141,0.031-0.251,0.057-0.33,0.078l0.093-0.399c0.324-0.145,0.61-0.253,0.859-0.324
			c0.249-0.071,0.463-0.106,0.641-0.106c0.332,0,0.569,0.09,0.71,0.271c0.141,0.181,0.212,0.452,0.212,0.814h0.037
			c0.494-0.428,0.869-0.727,1.124-0.898c0.255-0.17,0.522-0.256,0.8-0.256c0.133,0,0.262,0.017,0.386,0.05
			c0.125,0.033,0.23,0.089,0.318,0.168c0.091,0.087,0.159,0.188,0.202,0.302S186.842,66.709,186.842,66.925z"/>
		<path d="M189.04,72.386c-0.614,0-1.126-0.109-1.535-0.327c-0.409-0.218-0.613-0.503-0.613-0.856c0-0.166,0.06-0.322,0.181-0.467
			c0.12-0.145,0.268-0.218,0.442-0.218c0.166,0,0.3,0.038,0.402,0.115c0.102,0.077,0.182,0.167,0.24,0.271
			c0.062,0.108,0.117,0.237,0.165,0.386c0.048,0.149,0.088,0.272,0.121,0.367c0.062,0.071,0.148,0.136,0.258,0.196
			c0.11,0.06,0.269,0.09,0.476,0.09c0.448,0,0.788-0.112,1.018-0.337c0.23-0.225,0.346-0.528,0.346-0.911
			c0-0.283-0.108-0.509-0.324-0.677c-0.216-0.168-0.538-0.323-0.965-0.465c-0.154-0.05-0.334-0.126-0.542-0.228
			s-0.374-0.211-0.498-0.328c-0.149-0.133-0.27-0.291-0.361-0.474c-0.091-0.183-0.137-0.399-0.137-0.649
			c0-0.532,0.238-0.993,0.713-1.382c0.475-0.389,1.06-0.584,1.753-0.584c0.162,0,0.336,0.008,0.523,0.025
			c0.187,0.017,0.392,0.062,0.617,0.137c0.195,0.066,0.361,0.165,0.498,0.296c0.137,0.131,0.206,0.3,0.206,0.508
			c0,0.17-0.057,0.325-0.171,0.464s-0.265,0.209-0.451,0.209c-0.154,0-0.28-0.033-0.38-0.1c-0.1-0.066-0.183-0.156-0.249-0.268
			c-0.066-0.112-0.12-0.232-0.162-0.361c-0.042-0.129-0.087-0.255-0.137-0.38c-0.079-0.033-0.149-0.056-0.212-0.068
			c-0.062-0.012-0.145-0.019-0.249-0.019c-0.407,0-0.715,0.109-0.925,0.328s-0.314,0.478-0.314,0.778
			c0,0.291,0.094,0.511,0.283,0.658c0.189,0.148,0.501,0.301,0.937,0.459c0.565,0.204,0.975,0.437,1.23,0.699
			c0.255,0.262,0.383,0.587,0.383,0.973c0,0.632-0.243,1.147-0.729,1.544C190.391,72.187,189.779,72.386,189.04,72.386z"/>
	</g>
</g>
<rect x="3.5" y="2.5" fill="none" stroke="#000000" stroke-width="3" stroke-miterlimit="10" width="217" height="95"/>
</svg>
