<?xml version="1.0" encoding="utf-8"?>
<!-- Generator: Adobe Illustrator 18.1.0, SVG Export Plug-In . SVG Version: 6.00 Build 0)  -->
<!DOCTYPE svg PUBLIC "-//W3C//DTD SVG 1.1//EN" "http://www.w3.org/Graphics/SVG/1.1/DTD/svg11.dtd">
<svg version="1.1" id="farmathand_x5F_logo" xmlns="http://www.w3.org/2000/svg" xmlns:xlink="http://www.w3.org/1999/xlink"
	 x="0px" y="0px" viewBox="0 0 72 72" enable-background="new 0 0 72 72" xml:space="preserve">
<g id="logo_x5F_red">
	<polygon fill="#E63C2F" points="65.2,65.5 8.9,71.6 4,0.2 67.7,5.3 	"/>
	<g>
		<path fill="#FFFFFF" d="M21,11.9h-5.2v2.8h4.5v2h-4.5v4.6h-2.2V10H21V11.9z"/>
		<path fill="#FFFFFF" d="M33.6,21.3h-2.3l-0.7-2h-4l-0.7,2h-2.3L27.8,10h1.7L33.6,21.3z M30.1,17.4l-1.4-4.1l-1.4,4.1H30.1z"/>
		<path fill="#FFFFFF" d="M45.6,21.3H43l-2.2-4.5h-1.6v4.5H37V10h4.4c1.1,0,2,0.3,2.7,1c0.6,0.6,1,1.5,1,2.4c0,0.8-0.2,1.4-0.6,1.9
			c-0.4,0.5-0.9,0.8-1.4,1L45.6,21.3z M42.9,13.4c0-0.4-0.1-0.8-0.4-1.1c-0.3-0.3-0.7-0.4-1.2-0.4h-2.1v3h2.1c0.5,0,0.9-0.1,1.2-0.4
			C42.8,14.2,42.9,13.9,42.9,13.4z"/>
		<polygon fill="#FFFFFF" points="59.6,21.3 57.4,21.3 57.4,14.7 55.3,19 53.8,19 51.6,14.7 51.6,21.3 49.4,21.3 49.4,10 51.6,10 
			54.5,16.1 57.4,10 59.6,10 		"/>
		<path fill="#FFFFFF" d="M22.3,41.2H20l-0.7-2h-4l-0.7,2h-2.3l4.1-11.3h1.7L22.3,41.2z M18.7,37.3l-1.4-4.1l-1.4,4.1H18.7z"/>
		<path fill="#FFFFFF" d="M32.9,31.8h-3v9.3h-2.2v-9.3h-3v-2h8.1V31.8z"/>
		<path fill="#FFFFFF" d="M21.8,61h-2.2v-4.7h-3.8V61h-2.2V49.7h2.2v4.6h3.8v-4.6h2.2V61z"/>
		<path fill="#FFFFFF" d="M35.1,61h-2.3l-0.7-2h-4l-0.7,2h-2.3l4.1-11.3H31L35.1,61z M31.6,57.2L30.2,53l-1.4,4.1H31.6z"/>
		<path fill="#FFFFFF" d="M47.2,61h-2l-4.5-6.9V61h-2.2V49.7h2l4.5,6.9v-6.9h2.2V61z"/>
		<path fill="#FFFFFF" d="M60,55.3c0,1.3,0,2.1-0.1,2.5c-0.1,0.9-0.5,1.6-1,2.1c-0.7,0.7-1.7,1.1-3,1.1h-4.1V49.7h4.1
			c1.3,0,2.3,0.4,3,1.1c0.6,0.6,0.9,1.3,1,2.1C60,53.3,60,54.1,60,55.3z M57.8,55.3c0-0.9,0-1.6-0.1-1.9c-0.1-0.4-0.2-0.8-0.4-1
			c-0.4-0.5-0.9-0.7-1.7-0.7H54V59h1.7c0.7,0,1.3-0.2,1.7-0.7c0.2-0.2,0.3-0.6,0.4-1.1C57.8,56.9,57.8,56.2,57.8,55.3z"/>
	</g>
</g>
</svg>
